<?xml version="1.0"?>
<svg xmlns="http://www.w3.org/2000/svg" xmlns:xlink="http://www.w3.org/1999/xlink" version="1.1" id="Layer_1" x="0px" y="0px" viewBox="0 0 512 512" style="enable-background:new 0 0 512 512;" xml:space="preserve" width="512px" height="512px" class=""><g><g>
	<g>
		<g>
			<path d="M256,0c-4.521,0-8.563,2.865-10.063,7.135c-1.5,4.271-0.146,9.031,3.396,11.865l53.333,42.667     c4.625,3.677,11.313,2.948,15-1.667c3.666-4.604,2.938-11.313-1.667-15l-26.646-21.302     C403.021,39.948,490.667,137.927,490.667,256c0,5.896,4.771,10.667,10.667,10.667c5.896,0,10.667-4.771,10.667-10.667     C512,114.844,397.167,0,256,0z" data-original="#000000" class="active-path" data-old_color="#000000" fill="#4CAF50"/>
			<path d="M262.666,493l-53.333-42.667c-4.604-3.646-11.312-2.938-15,1.667c-3.667,4.604-2.938,11.313,1.666,15l26.646,21.302     C108.979,472.052,21.333,374.073,21.333,256c0-5.896-4.771-10.667-10.667-10.667C4.771,245.333,0,250.104,0,256     c0,141.156,114.833,256,256,256c4.521,0,8.563-2.865,10.063-7.135C267.563,500.594,266.208,495.833,262.666,493z" data-original="#000000" class="active-path" data-old_color="#000000" fill="#4CAF50"/>
			<path d="M214.646,30.719c-12.083-12.104-33.229-12.094-45.271-0.01L30.708,169.375c-6.042,6.042-9.375,14.083-9.375,22.625     s3.333,16.583,9.375,22.625l266.646,266.656c6.042,6.052,14.083,9.385,22.646,9.385s16.604-3.333,22.625-9.375l138.667-138.667     c6.042-6.042,9.375-14.083,9.375-22.625s-3.333-16.583-9.375-22.625L214.646,30.719z M45.792,199.542     c-2.021-2.021-3.125-4.698-3.125-7.542s1.104-5.521,3.125-7.542L184.479,45.781c2-2.01,4.667-3.115,7.521-3.115     s5.521,1.104,7.542,3.125l232.464,232.464l-153.75,153.75L45.792,199.542z M466.208,327.542L327.521,466.219     c-4,4.021-11.021,4.031-15.063-0.01l-19.12-19.12l153.75-153.75l19.12,19.12c2.021,2.021,3.125,4.698,3.125,7.542     S468.229,325.521,466.208,327.542z" data-original="#000000" class="active-path" data-old_color="#000000" fill="#4CAF50"/>
			<path d="M387.125,365.792l-21.333,21.333c-4.167,4.167-4.167,10.917,0,15.083c2.083,2.083,4.813,3.125,7.542,3.125     c2.729,0,5.458-1.042,7.542-3.125l21.333-21.333c4.167-4.167,4.167-10.917,0-15.083     C398.042,361.625,391.292,361.625,387.125,365.792z" data-original="#000000" class="active-path" data-old_color="#000000" fill="#4CAF50"/>
			<path d="M131.125,109.792l-21.333,21.333c-4.167,4.167-4.167,10.917,0,15.083c2.083,2.083,4.813,3.125,7.542,3.125     c2.729,0,5.458-1.042,7.542-3.125l21.333-21.333c4.167-4.167,4.167-10.917,0-15.083     C142.042,105.625,135.292,105.625,131.125,109.792z" data-original="#000000" class="active-path" data-old_color="#000000" fill="#4CAF50"/>
			<circle cx="192" cy="64" r="10.667" data-original="#000000" class="active-path" data-old_color="#000000" fill="#4CAF50"/>
		</g>
	</g>
</g></g> </svg>
